<?xml version="1.0" encoding="UTF-8"?>
<svg id="_レイヤー_2" data-name="レイヤー 2" xmlns="http://www.w3.org/2000/svg" viewBox="0 0 614.73 154.07">
  <defs>
    <style>
      .cls-1 {
        fill: #ffffff;
      }

      .cls-2 {
        fill: #ffffff;
      }
    </style>
  </defs>
  <g id="_レイヤー_1-2" data-name="レイヤー 1">
    <g>
      <path class="cls-2" d="M134.29,73.67c-1.28-.6-2.68-1.58-4.2-2.94-3.88-3.52-5.82-8.52-5.82-15,0-2,.22-4.46.66-7.38.24-1.76.36-2.96.36-3.6,0-.96-.17-1.83-.51-2.61-.34-.78-.93-1.55-1.77-2.31-.24-.2-.36-.36-.36-.48s.08-.21.24-.27c.16-.06.32-.09.48-.09.8,0,1.71.25,2.73.75,1.02.5,1.89,1.16,2.61,1.98s1.08,1.65,1.08,2.49c0,.52-.09,1.11-.27,1.77s-.39,1.35-.63,2.07c-.52,1.68-.91,3.12-1.17,4.32-.26,1.2-.39,2.6-.39,4.2,0,2.16.41,4.11,1.23,5.85.82,1.74,1.78,3.1,2.88,4.08,1.1.98,2.05,1.47,2.85,1.47.48,0,.8-.42.96-1.26.36-1.72.75-3.24,1.17-4.56s.75-2.22.99-2.7c.12-.28.26-.53.42-.75.16-.22.3-.33.42-.33s.18.12.18.36c0,.2-.04.54-.12,1.02-.4,2.04-.6,3.9-.6,5.58,0,.6.02,1.17.06,1.71.04.54.08.97.12,1.29.04.76.26,1.62.66,2.58.32.96.48,1.62.48,1.98,0,.52-.14.93-.42,1.23-.28.3-.68.45-1.2.45-.8,0-1.84-.3-3.12-.9ZM160.66,58.13c-.3-.32-.55-.76-.75-1.32-.04-.08-.39-1.37-1.05-3.87-.66-2.5-1.95-4.23-3.87-5.19-.92-.48-2.16-.72-3.72-.72h-.72c-.36,0-.54-.12-.54-.36,0-.16.2-.32.6-.48.16-.08.55-.18,1.17-.3.62-.12,1.31-.18,2.07-.18,2.8,0,5.22.98,7.26,2.94,1.44,1.36,2.42,2.71,2.94,4.05.52,1.34.78,2.37.78,3.09s-.23,1.37-.69,1.95c-.46.58-1.07.87-1.83.87-.8,0-1.35-.16-1.65-.48Z"/>
      <path class="cls-2" d="M199.1,37.88c.46.02.82.06,1.08.12.26.06.49.23.69.51.12.16.18.4.18.72,0,.6-.34,1.2-1.02,1.8-1.76,1.64-3.64,2.98-5.64,4.02-.56.28-.9.74-1.02,1.38-1.2,6.24-2.27,11.48-3.21,15.72-.94,4.24-1.83,7.62-2.67,10.14-1,2.92-1.88,4.38-2.64,4.38-.64,0-1.22-.25-1.74-.75-.52-.5-.78-1.15-.78-1.95,0-.52.34-1.52,1.02-3,1.12-2.52,2.16-5.3,3.12-8.34,1.56-4.92,2.84-9.76,3.84-14.52.04-.08.06-.22.06-.42,0-.32-.11-.55-.33-.69-.22-.14-.53-.17-.93-.09-.72.12-1.44.18-2.16.18-.88,0-1.8-.21-2.76-.63s-1.84-.97-2.64-1.65c-.4-.32-.6-.58-.6-.78,0-.12.1-.18.3-.18l1.02.12c.8.16,1.64.24,2.52.24,2.04,0,3.94-.36,5.7-1.08.6-.2.96-.64,1.08-1.32.36-2.52.54-4.36.54-5.52s-.18-2.16-.54-2.88c-.36-.72-.87-1.28-1.53-1.68-.66-.4-1.01-.62-1.05-.66-.2-.12-.3-.26-.3-.42,0-.24.28-.36.84-.36.48,0,1.06.06,1.74.18.68.12,1.28.3,1.8.54.92.44,1.59.91,2.01,1.41.42.5.63,1.17.63,2.01v.66c0,.6.22,1.1.66,1.5.64.6,1.2.98,1.68,1.14.24.08.59.13,1.05.15ZM194.75,39.59c0,.2.08.33.24.39.16.06.32,0,.48-.15.44-.52.66-.9.66-1.14-.6-1.12-.92-1.6-.96-1.44,0,.12-.04.34-.12.66l-.3,1.5v.18ZM224.09,73.79c0,1.32-.9,2.18-2.7,2.58-1.92.44-4,.66-6.24.66-3.6,0-6.54-.6-8.82-1.8-2.28-1.2-3.42-3.14-3.42-5.82,0-.44.05-.92.15-1.44.1-.52.19-.9.27-1.14.2-.56.43-1.03.69-1.41.26-.38.51-.57.75-.57.2,0,.3.14.3.42v.24l-.06,1.62c0,3.88,2.84,5.82,8.52,5.82,1.08,0,3.06-.2,5.94-.6,1.2-.2,1.98-.3,2.34-.3,1.52,0,2.28.58,2.28,1.74ZM209.36,43.25c-.74-.52-1.11-.92-1.11-1.2,0-.2.14-.3.42-.3l.9.18c1.36.32,2.42.48,3.18.48.36,0,1.18-.08,2.46-.24,1.2-.16,2.04-.24,2.52-.24,1.52,0,2.72.28,3.6.84.88.56,1.32,1.42,1.32,2.58,0,.4-.12.78-.36,1.14-.4.48-1.1.72-2.1.72-.4,0-.7.02-.9.06-.96.16-1.85.48-2.67.96-.82.48-1.71,1.1-2.67,1.86-.72.52-1.14.82-1.26.9-.44.24-.8.36-1.08.36-.16,0-.24-.06-.24-.18,0-.16.08-.34.24-.54.08-.16.46-.58,1.14-1.26,1.68-1.88,2.52-3,2.52-3.36,0-.32-.22-.57-.66-.75-.44-.18-.94-.34-1.5-.48-.56-.14-1-.25-1.32-.33-.88-.28-1.69-.68-2.43-1.2ZM223.97,34.28c1.48.38,2.78.99,3.9,1.83,1.12.84,1.68,1.9,1.68,3.18,0,.6-.21,1.06-.63,1.38-.42.32-.89.48-1.41.48-.4,0-.81-.11-1.23-.33-.42-.22-.75-.57-.99-1.05-.6-1.12-1.25-2.04-1.95-2.76-.7-.72-1.63-1.32-2.79-1.8-.16-.08-.4-.18-.72-.3-.32-.12-.55-.23-.69-.33-.14-.1-.21-.23-.21-.39s.11-.28.33-.36c.22-.08.49-.12.81-.12,1.12,0,2.42.19,3.9.57ZM229.79,29.81c1.24.32,2.35.84,3.33,1.56.98.72,1.47,1.62,1.47,2.7,0,.56-.17.97-.51,1.23-.34.26-.69.39-1.05.39-.96,0-1.68-.36-2.16-1.08-.56-.84-1.16-1.51-1.8-2.01-.64-.5-1.54-1.05-2.7-1.65-.36-.16-.68-.3-.96-.42-.28-.12-.51-.23-.69-.33-.18-.1-.27-.21-.27-.33,0-.36.74-.54,2.22-.54.84,0,1.88.16,3.12.48Z"/>
      <path class="cls-2" d="M285.74,34.04c1.18.74,1.77,1.63,1.77,2.67,0,.44-.13.77-.39.99-.26.22-.59.33-.99.33-.84,0-1.96-.14-3.36-.42-.28-.04-.82-.12-1.62-.24-.8-.12-1.46-.18-1.98-.18-1.2,0-2.35.15-3.45.45-1.1.3-1.89.57-2.37.81-1.64.88-3.11,2.64-4.41,5.28-1.3,2.64-2.3,5.56-3,8.76-.7,3.2-1.05,6-1.05,8.4,0,4.04.69,6.87,2.07,8.49s3.47,2.43,6.27,2.43l1.68-.12c1.2-.16,2.12-.24,2.76-.24,2.88,0,4.32.7,4.32,2.1,0,1.04-.81,1.73-2.43,2.07-1.62.34-3.25.51-4.89.51-3.32,0-5.93-.54-7.83-1.62-1.9-1.08-3.25-2.72-4.05-4.92-.8-2.2-1.2-5.08-1.2-8.64,0-4,.7-7.83,2.1-11.49,1.4-3.66,3.22-6.83,5.46-9.51,1.24-1.32,1.78-1.94,1.62-1.86l-.24.06c-1.12.24-2.71.76-4.77,1.56-2.06.8-4.69,1.9-7.89,3.3l-2.58,1.08c-.32.16-1.02.52-2.1,1.08-.76.4-1.36.7-1.8.9-.44.2-.9.3-1.38.3-1,0-2.07-.46-3.21-1.38-1.14-.92-2.01-1.84-2.61-2.76-.2-.28-.3-.52-.3-.72,0-.16.06-.3.18-.42.12-.12.26-.18.42-.18.24,0,.5.08.78.24.08.04.42.23,1.02.57s1.34.51,2.22.51c.2,0,.54-.04,1.02-.12.12-.04,1.34-.44,3.66-1.2,4.48-1.52,8.59-2.83,12.33-3.93,3.74-1.1,7.19-1.85,10.35-2.25.6-.08,1.18-.23,1.74-.45.56-.22.92-.37,1.08-.45,1.2-.6,2.28-.9,3.24-.9,1.36,0,2.63.37,3.81,1.11Z"/>
      <path class="cls-2" d="M349.99,58.01c0,.52-.1,1.04-.3,1.56-1.2,3.92-2.68,7.11-4.44,9.57-1.76,2.46-3.56,4.22-5.4,5.28-1.84,1.06-3.58,1.59-5.22,1.59-2.36,0-4.11-.72-5.25-2.16-1.14-1.44-1.71-3.18-1.71-5.22,0-1,.18-3.44.54-7.32.2-2.12.3-3.5.3-4.14,0-1.76-.34-3.19-1.02-4.29-.68-1.1-1.82-1.65-3.42-1.65s-3.33.52-5.31,1.56c-1.98,1.04-3.81,2.44-5.49,4.2-1.56,1.6-2.79,3.39-3.69,5.37-.9,1.98-1.47,3.5-1.71,4.56-.24,1.06-.58,2.71-1.02,4.95-.32,1.8-.6,3.01-.84,3.63-.24.62-.64.93-1.2.93-.92,0-1.63-.41-2.13-1.23-.5-.82-.75-1.81-.75-2.97,0-.96.16-1.92.48-2.88,1.28-3.88,2.97-7.6,5.07-11.16,2.1-3.56,5.01-8.04,8.73-13.44,2.56-3.72,4.26-6.24,5.1-7.56,1.08-1.64,1.62-2.96,1.62-3.96,0-.64-.22-1.2-.66-1.68-.32-.4-.62-.73-.9-.99-.28-.26-.42-.43-.42-.51,0-.24.28-.36.84-.36.72,0,1.5.24,2.34.72.84.48,1.54,1.14,2.1,1.98.56.84.84,1.74.84,2.7,0,1.16-.31,2.19-.93,3.09-.62.9-1.49,1.87-2.61,2.91l-1.02,1.02c-1.8,1.8-3.35,3.49-4.65,5.07-1.3,1.58-2.53,3.29-3.69,5.13-.04.52.1.78.42.78.16,0,.34-.08.54-.24,3.16-2.28,6.24-3.42,9.24-3.42,2.24,0,4.12.69,5.64,2.07,1.52,1.38,2.28,3.47,2.28,6.27,0,1.4-.16,3.1-.48,5.1-.04.24-.12.83-.24,1.77s-.18,1.91-.18,2.91c0,1.68.32,2.92.96,3.72.64.8,1.7,1.2,3.18,1.2,2.08,0,4.26-1.04,6.54-3.12,2.28-2.08,4.48-5.46,6.6-10.14.08-.16.19-.4.33-.72.14-.32.27-.56.39-.72.12-.16.24-.24.36-.24.16,0,.24.16.24.48Z"/>
      <path class="cls-2" d="M401.31,39.38c.88.54,1.67,1.18,2.37,1.92.7.74,1.05,1.39,1.05,1.95,0,.48-.15.87-.45,1.17s-.77.65-1.41,1.05c-.56.36-1.01.68-1.35.96s-.65.62-.93,1.02c-4.84,7.4-10.6,13.62-17.28,18.66-6.68,5.04-13.54,8.4-20.58,10.08-.2.04-.42.06-.66.06-.36,0-.54-.1-.54-.3,0-.16.28-.36.84-.6,7.2-3,13.6-6.88,19.2-11.64,5.6-4.76,10.9-11.4,15.9-19.92.24-.44.36-.8.36-1.08,0-.4-.24-.6-.72-.6-.2,0-.48.04-.84.12-2,.52-3.52.88-4.56,1.08-1.04.2-2.08.3-3.12.3-.84,0-1.58-.08-2.22-.24l-.48-.06c-.48,0-.9.2-1.26.6-2.64,2.84-5.71,5.6-9.21,8.28-3.5,2.68-6.25,4.44-8.25,5.28-.4.16-.66.24-.78.24-.16,0-.24-.06-.24-.18s.07-.25.21-.39.35-.29.63-.45c1.84-1.24,4.13-3.23,6.87-5.97,2.74-2.74,5.12-5.47,7.14-8.19,2.02-2.72,3.03-4.74,3.03-6.06,0-1.12-.72-2-2.16-2.64-.4-.16-.6-.34-.6-.54,0-.24.18-.44.54-.6.52-.24,1.2-.36,2.04-.36,1,0,1.94.25,2.82.75.88.5,1.59,1.1,2.13,1.8.54.7.81,1.31.81,1.83,0,.36-.2.88-.6,1.56l-.96,1.5c-.32.44-.5.8-.54,1.08-.04.28.06.42.3.42,1.64,0,3.36-.14,5.16-.42,1.8-.28,3.02-.6,3.66-.96.32-.2.67-.42,1.05-.66s.69-.41.93-.51c.24-.1.48-.15.72-.15.44,0,1.1.27,1.98.81Z"/>
      <path class="cls-2" d="M421.79,78.95c0-.16.34-.42,1.02-.78,5.24-2.96,9.23-6.17,11.97-9.63,2.74-3.46,4.58-7.2,5.52-11.22.94-4.02,1.41-8.81,1.41-14.37,0-1.68-.08-3.8-.24-6.36-.08-1.76-.5-2.98-1.26-3.66-.44-.4-.86-.69-1.26-.87-.4-.18-.67-.32-.81-.42-.14-.1-.21-.25-.21-.45,0-.56.78-.84,2.34-.84.56,0,1.12.04,1.68.12,1,.24,2.06.82,3.18,1.74,1.12.92,1.68,1.7,1.68,2.34,0,.32-.14.76-.42,1.32-.04.08-.15.36-.33.84-.18.48-.27,1.02-.27,1.62,0,1.72-.04,3.74-.12,6.06-.24,6.48-1.08,11.82-2.52,16.02-1.44,4.2-3.75,7.75-6.93,10.65-3.18,2.9-7.59,5.53-13.23,7.89-.4.16-.7.24-.9.24s-.3-.08-.3-.24ZM427.67,57.41c-.48-.8-.72-1.76-.72-2.88,0-.12.06-.91.18-2.37.12-1.46.18-2.73.18-3.81,0-4.04-.16-6.94-.48-8.7-.12-.76-.29-1.36-.51-1.8-.22-.44-.59-.8-1.11-1.08-.36-.2-.66-.38-.9-.54-.24-.16-.36-.34-.36-.54,0-.28.26-.53.78-.75s1.1-.33,1.74-.33c.56,0,1.02.08,1.38.24,1.32.48,2.23.98,2.73,1.5.5.52.75,1.14.75,1.86,0,.48-.06,1.02-.18,1.62-.2,1.08-.3,3.16-.3,6.24l.06,4.68c0,.8.04,1.76.12,2.88.08.96.12,1.56.12,1.8,0,.8-.18,1.53-.54,2.19-.36.66-.86.99-1.5.99-.48,0-.96-.4-1.44-1.2Z"/>
      <path class="cls-2" d="M470.19,66.35c-1.48,0-2.78-.76-3.9-2.28-.44-.56-.77-1.14-.99-1.74-.22-.6-.33-1.12-.33-1.56,0-.4.14-.6.42-.6.12,0,.32.09.6.27.28.18.56.35.84.51.88.4,1.66.71,2.34.93.68.22,1.58.33,2.7.33s4.56-.25,10.2-.75c5.64-.5,10.28-.95,13.92-1.35,1.32-.12,2.3-.29,2.94-.51s1.22-.47,1.74-.75c.56-.28,1.08-.42,1.56-.42.72,0,1.79.22,3.21.66,1.42.44,2.69,1.01,3.81,1.71,1.12.7,1.68,1.43,1.68,2.19,0,.96-.72,1.44-2.16,1.44-1,0-2.52-.26-4.56-.78-1.16-.28-2.98-.42-5.46-.42-1.92,0-5.4.14-10.44.42l-2.82.18c-2.52.16-4.99.43-7.41.81-2.42.38-4.15.75-5.19,1.11-1.12.4-2.02.6-2.7.6ZM478.41,48.95c-.16.04-.43.12-.81.24s-.73.18-1.05.18c-1.12,0-2.12-.78-3-2.34-.6-1.12-.9-1.96-.9-2.52,0-.24.1-.36.3-.36.16,0,.4.14.72.42.88.72,1.74,1.08,2.58,1.08.96-.04,2.55-.15,4.77-.33,2.22-.18,4.31-.39,6.27-.63,2.6-.32,4.14-.54,4.62-.66.72-.16,1.38-.5,1.98-1.02.32-.28.62-.48.9-.6.28-.12.68-.18,1.2-.18s1.22.15,2.1.45c.88.3,1.66.7,2.34,1.2.68.5,1.02,1.07,1.02,1.71,0,.48-.12.84-.36,1.08-.24.24-.72.36-1.44.36-.56,0-1.32-.04-2.28-.12-.8-.08-1.3-.12-1.5-.12-1.8,0-4.59.22-8.37.66-3.78.44-6.37.8-7.77,1.08-.56.12-1,.26-1.32.42Z"/>
      <path class="cls-2" d="M530.01,57.77c-.04-.2-.13-.68-.27-1.44-.14-.76-.47-1.54-.99-2.34-.52-.8-1.24-1.5-2.16-2.1-.4-.28-.6-.52-.6-.72,0-.32.22-.48.66-.48s1.28.28,2.52.84c1.24.56,2.37,1.35,3.39,2.37,1.02,1.02,1.53,2.23,1.53,3.63,0,.68-.14,1.3-.42,1.86-.28.56-.72.84-1.32.84-1.16,0-1.94-.82-2.34-2.46ZM526.77,77.99c-.12-.08-.18-.16-.18-.24,0-.24.38-.48,1.14-.72,3.76-1.16,7.34-3.14,10.74-5.94,3.4-2.8,6.28-5.95,8.64-9.45,2.36-3.5,3.92-6.83,4.68-9.99.24-1.04.36-1.88.36-2.52,0-.92-.32-1.64-.96-2.16-.16-.12-.37-.27-.63-.45-.26-.18-.39-.33-.39-.45,0-.2.1-.36.3-.48.2-.12.42-.18.66-.18.64,0,1.34.1,2.1.3.96.28,1.88.95,2.76,2.01.88,1.06,1.32,2.13,1.32,3.21,0,.32-.06.58-.18.78-.12.2-.31.43-.57.69-.26.26-.45.49-.57.69-.12.16-.23.35-.33.57-.1.22-.21.45-.33.69-1.52,2.96-3.29,5.91-5.31,8.85s-4.86,5.88-8.52,8.82c-3.66,2.94-7.97,4.91-12.93,5.91-.48.12-.92.18-1.32.18-.2,0-.36-.04-.48-.12ZM539.91,54.11c-.36-.44-.62-1.08-.78-1.92-.24-1.16-.55-2.14-.93-2.94-.38-.8-1.17-1.8-2.37-3-.36-.36-.54-.64-.54-.84,0-.24.16-.36.48-.36.72,0,1.7.33,2.94.99,1.24.66,2.32,1.53,3.24,2.61.92,1.08,1.38,2.22,1.38,3.42,0,.76-.2,1.4-.6,1.92-.4.52-.92.78-1.56.78-.48,0-.9-.22-1.26-.66Z"/>
      <path class="cls-2" d="M611.31,39.38c.88.54,1.67,1.18,2.37,1.92.7.74,1.05,1.39,1.05,1.95,0,.48-.15.87-.45,1.17s-.77.65-1.41,1.05c-.56.36-1.01.68-1.35.96s-.65.62-.93,1.02c-4.84,7.4-10.6,13.62-17.28,18.66-6.68,5.04-13.54,8.4-20.58,10.08-.2.04-.42.06-.66.06-.36,0-.54-.1-.54-.3,0-.16.28-.36.84-.6,7.2-3,13.6-6.88,19.2-11.64,5.6-4.76,10.9-11.4,15.9-19.92.24-.44.36-.8.36-1.08,0-.4-.24-.6-.72-.6-.2,0-.48.04-.84.12-2,.52-3.52.88-4.56,1.08-1.04.2-2.08.3-3.12.3-.84,0-1.58-.08-2.22-.24l-.48-.06c-.48,0-.9.2-1.26.6-2.64,2.84-5.71,5.6-9.21,8.28-3.5,2.68-6.25,4.44-8.25,5.28-.4.16-.66.24-.78.24-.16,0-.24-.06-.24-.18s.07-.25.21-.39.35-.29.63-.45c1.84-1.24,4.13-3.23,6.87-5.97,2.74-2.74,5.12-5.47,7.14-8.19,2.02-2.72,3.03-4.74,3.03-6.06,0-1.12-.72-2-2.16-2.64-.4-.16-.6-.34-.6-.54,0-.24.18-.44.54-.6.52-.24,1.2-.36,2.04-.36,1,0,1.94.25,2.82.75.88.5,1.59,1.1,2.13,1.8.54.7.81,1.31.81,1.83,0,.36-.2.88-.6,1.56l-.96,1.5c-.32.44-.5.8-.54,1.08-.04.28.06.42.3.42,1.64,0,3.36-.14,5.16-.42,1.8-.28,3.02-.6,3.66-.96.32-.2.67-.42,1.05-.66s.69-.41.93-.51c.24-.1.48-.15.72-.15.44,0,1.1.27,1.98.81Z"/>
    </g>
    <g>
      <path class="cls-2" d="M217.25,105.62h4.03v23.96h-4.03v-23.96Z"/>
      <path class="cls-2" d="M229.98,105.62h7.99c2.46,0,4.57.23,6.34.69s3.25,1.19,4.43,2.2c1.35,1.16,2.36,2.48,3.04,3.97.68,1.49,1.02,3.13,1.02,4.9s-.3,3.27-.91,4.75c-.61,1.48-1.5,2.77-2.67,3.88-1.17,1.1-2.63,1.97-4.35,2.61-1.73.64-3.71.96-5.94.96h-8.94v-23.96ZM234.01,127.83h4.28c1.35,0,2.62-.22,3.81-.67s2.23-1.11,3.12-1.99c.88-.88,1.58-1.96,2.1-3.24.51-1.28.77-2.77.77-4.45,0-1.48-.24-2.84-.72-4.07-.48-1.23-1.16-2.3-2.02-3.19s-1.9-1.58-3.1-2.08c-1.2-.49-2.51-.74-3.93-.74h-4.3v20.43Z"/>
      <path class="cls-2" d="M269.78,105.08l11.27,24.5h-4.1l-3.65-7.99h-10.28l-3.78,7.99h-2.02l11.54-24.5h1.01ZM263.73,120.04h8.83l-4.35-9.48-4.48,9.48Z"/>
      <path class="cls-2" d="M303.39,105.62v1.55h-8.67v22.4h-4.03v-22.4h-8.67v-1.55h21.37Z"/>
      <path class="cls-2" d="M325.17,105.62v1.55h-12.63v8.56h8.46v1.55h-8.46v10.73h12.63v1.55h-16.66v-23.96h16.66Z"/>
      <path class="cls-2" d="M332.09,105.62h2.26l15.7,17.52h.18v-17.52h1.77v24.52h-.94l-17-19.48h-.14v18.92h-1.82v-23.96Z"/>
      <path class="cls-2" d="M379.66,117.69c0,1.67.25,3.18.76,4.51s1.2,2.46,2.09,3.38c.88.92,1.93,1.63,3.13,2.11,1.2.49,2.51.73,3.92.73.84,0,1.66-.16,2.44-.49.78-.32,1.51-.75,2.18-1.27.67-.52,1.27-1.11,1.8-1.77.53-.66.96-1.32,1.3-2l1.7,1.08c-.49.81-1.08,1.58-1.75,2.32-.67.74-1.45,1.4-2.34,1.97-.88.57-1.88,1.03-3,1.36-1.11.34-2.36.51-3.73.51-1.99,0-3.79-.33-5.41-.99s-3.01-1.56-4.16-2.69c-1.16-1.13-2.05-2.45-2.68-3.97-.63-1.51-.95-3.11-.95-4.8,0-1.12.14-2.21.43-3.28.29-1.07.71-2.07,1.26-3,.55-.93,1.22-1.79,2.01-2.57.79-.78,1.68-1.45,2.67-2,.99-.56,2.08-.99,3.26-1.3,1.18-.31,2.44-.46,3.78-.46s2.45.17,3.53.51c1.08.34,2.06.8,2.95,1.36.88.57,1.67,1.22,2.37,1.96.69.74,1.29,1.51,1.78,2.32l-1.75,1.16c-1-1.94-2.12-3.36-3.36-4.25-1.24-.9-2.67-1.35-4.28-1.35-1.38,0-2.68.25-3.88.76-1.21.51-2.26,1.23-3.15,2.17-.9.94-1.6,2.08-2.11,3.42-.51,1.34-.77,2.86-.77,4.54Z"/>
      <path class="cls-2" d="M404.76,105.62h4.03v22.4h12.07v1.55h-16.1v-23.96Z"/>
      <path class="cls-2" d="M426.64,105.62h4.03v23.96h-4.03v-23.96Z"/>
      <path class="cls-2" d="M440.37,105.62h2.26l15.7,17.52h.18v-17.52h1.77v24.52h-.94l-17-19.48h-.14v18.92h-1.82v-23.96Z"/>
      <path class="cls-2" d="M469.97,105.62h4.03v23.96h-4.03v-23.96Z"/>
      <path class="cls-2" d="M486.5,117.69c0,1.67.25,3.18.76,4.51s1.2,2.46,2.09,3.38c.88.92,1.93,1.63,3.13,2.11,1.21.49,2.51.73,3.92.73.84,0,1.66-.16,2.44-.49.78-.32,1.51-.75,2.18-1.27.67-.52,1.27-1.11,1.8-1.77.53-.66.96-1.32,1.3-2l1.7,1.08c-.49.81-1.08,1.58-1.75,2.32-.67.74-1.45,1.4-2.34,1.97-.88.57-1.88,1.03-3,1.36-1.11.34-2.36.51-3.73.51-1.99,0-3.79-.33-5.41-.99s-3.01-1.56-4.16-2.69c-1.16-1.13-2.05-2.45-2.68-3.97-.63-1.51-.95-3.11-.95-4.8,0-1.12.14-2.21.43-3.28.29-1.07.71-2.07,1.26-3,.55-.93,1.22-1.79,2.01-2.57.79-.78,1.68-1.45,2.67-2,.99-.56,2.08-.99,3.26-1.3,1.18-.31,2.44-.46,3.78-.46s2.45.17,3.53.51c1.08.34,2.06.8,2.95,1.36.88.57,1.67,1.22,2.37,1.96.69.74,1.29,1.51,1.78,2.32l-1.75,1.16c-1-1.94-2.12-3.36-3.36-4.25s-2.67-1.35-4.28-1.35c-1.39,0-2.68.25-3.88.76s-2.26,1.23-3.15,2.17c-.9.94-1.6,2.08-2.11,3.42-.51,1.34-.77,2.86-.77,4.54Z"/>
    </g>
    <g>
      <polygon class="cls-1" points=".19 18.38 57.28 154.07 57.28 35.46 .19 18.38"/>
      <polygon class="cls-1" points="59.69 154.07 59.69 35.46 94.98 .05 59.69 154.07"/>
      <polygon class="cls-1" points="0 15.85 58.49 33.38 92.33 0 0 15.85"/>
    </g>
  </g>
</svg>